# Blender v2.93.0 OBJ File: 'd435i.blend'
# www.blender.org
mtllib d435i.mtl
o Cube
v -0.500000 1.677637 0.420184
v -0.500000 1.677637 -0.420184
v 0.500000 1.543427 0.386569
v 0.500000 1.543427 -0.386569
v -0.500000 -1.677637 0.420184
v -0.500000 -1.677637 -0.420184
v 0.500000 -1.543427 0.386569
v 0.500000 -1.543427 -0.386569
v -0.500000 1.770500 0.290000
v 0.500000 -1.628860 0.266800
v 0.500000 1.628860 0.266800
v -0.500000 -1.770500 0.290000
v -0.500000 1.770500 -0.290000
v 0.500000 1.628860 -0.266800
v -0.500000 -1.770500 -0.290000
v 0.500000 -1.628860 -0.266800
v -0.500000 -1.570500 -0.490000
v 0.500000 -1.444860 0.450800
v 0.500000 -1.444860 -0.450800
v -0.500000 -1.570500 0.490000
v -0.500000 -1.570500 0.290000
v 0.500000 -1.570500 0.290000
v 0.500000 -1.570500 -0.290000
v -0.500000 -1.570500 -0.290000
v 0.500000 1.444860 -0.450800
v -0.500000 1.570500 0.490000
v -0.500000 1.570500 0.290000
v -0.500000 1.570500 -0.290000
v -0.500000 1.570500 -0.490000
v 0.500000 1.444860 0.450800
v 0.500000 1.570500 0.290000
v 0.500000 1.570500 -0.290000
vt 0.875000 0.500000
vt 0.875000 0.500000
vt 0.875000 0.750000
vt 0.875000 0.750000
vt 0.625000 1.000000
vt 0.625000 1.000000
vt 0.625000 1.000000
vt 0.625000 1.000000
vt 0.625000 0.000000
vt 0.625000 0.000000
vt 0.625000 0.250000
vt 0.625000 0.250000
vt 0.375000 0.500000
vt 0.375000 0.500000
vt 0.375000 0.750000
vt 0.375000 0.750000
vt 0.625000 0.500000
vt 0.625000 0.500000
vt 0.625000 0.750000
vt 0.625000 0.750000
vt 0.625000 0.500000
vt 0.625000 0.500000
vt 0.375000 0.500000
vt 0.375000 0.500000
vt 0.375000 0.750000
vt 0.375000 0.000000
vt 0.375000 0.250000
vt 0.375000 1.000000
vt 0.375000 1.000000
vt 0.375000 1.000000
vt 0.375000 1.000000
vt 0.375000 0.000000
vt 0.375000 0.250000
vt 0.375000 0.250000
vt 0.375000 0.250000
vt 0.375000 0.750000
vt 0.625000 0.750000
vt 0.625000 0.250000
vt 0.625000 0.250000
vt 0.125000 0.500000
vt 0.125000 0.500000
vt 0.125000 0.750000
vt 0.125000 0.750000
vt 0.625000 0.750000
vn 0.1009 -0.5432 0.8335
vn 1.0000 0.0000 0.0000
vn 0.1277 -0.8074 0.5760
vn 0.1009 0.5432 -0.8335
vn 0.1277 0.8074 0.5760
vn -1.0000 0.0000 0.0000
vn 0.1402 0.9901 0.0000
vn 0.1402 -0.9901 0.0000
vn 0.1277 -0.8074 -0.5760
vn 0.1277 0.8074 -0.5760
vn 0.1009 -0.5432 -0.8335
vn 0.0392 0.0000 0.9992
vn 0.1009 0.5432 0.8335
vn 0.0392 0.0000 -0.9992
usemtl Material
s off
f 20/1/1 5/2/1 7/3/1 18/4/1
f 22/5/2 18/6/2 7/7/2 10/8/2
f 10/9/3 7/10/3 5/11/3 12/12/3
f 29/13/4 2/14/4 4/15/4 25/16/4
f 9/17/5 1/18/5 3/19/5 11/20/5
f 27/21/6 26/22/6 1/18/6 9/17/6
f 28/23/6 27/21/6 9/17/6 13/24/6
f 13/24/7 9/17/7 11/20/7 14/25/7
f 16/26/8 10/9/8 12/12/8 15/27/8
f 23/28/2 22/5/2 10/8/2 16/29/2
f 19/30/2 23/28/2 16/29/2 8/31/2
f 8/32/9 16/26/9 15/27/9 6/33/9
f 2/14/10 13/24/10 14/25/10 4/15/10
f 29/13/6 28/23/6 13/24/6 2/14/6
f 6/33/6 15/27/6 24/34/6 17/35/6
f 25/16/2 32/36/2 23/28/2 19/30/2
f 32/36/2 31/37/2 22/5/2 23/28/2
f 15/27/6 12/12/6 21/38/6 24/34/6
f 12/12/6 5/11/6 20/39/6 21/38/6
f 6/40/11 17/41/11 19/42/11 8/43/11
f 31/37/2 30/44/2 18/6/2 22/5/2
f 26/22/12 20/1/12 18/4/12 30/44/12
f 1/18/13 26/22/13 30/44/13 3/19/13
f 11/20/2 3/19/2 30/44/2 31/37/2
f 14/25/2 11/20/2 31/37/2 32/36/2
f 4/15/2 14/25/2 32/36/2 25/16/2
f 17/35/6 24/34/6 28/23/6 29/13/6
f 24/34/6 21/38/6 27/21/6 28/23/6
f 21/38/6 20/39/6 26/22/6 27/21/6
f 17/41/14 29/13/14 25/16/14 19/42/14
