# Blender v2.93.0 OBJ File: 'SambotBody.blend'
# www.blender.org
mtllib SambotBody.mtl
o Plane
v 1.000000 -2.340000 0.000000
v 1.000000 1.000000 0.000000
v -3.470000 -2.340000 0.000000
v -3.470000 1.000000 0.000000
v -3.470000 -2.340000 1.810000
v 1.000000 -2.340000 1.810000
v 1.000000 1.000000 1.810000
v -3.470000 1.000000 1.810000
v -2.470000 -2.340000 0.000000
v -2.470000 1.000000 0.000000
v -2.470000 -2.340000 1.810000
v -2.470000 1.000000 1.810000
v 0.000000 -2.340000 0.000000
v 0.000000 -2.340000 1.810000
v 0.000000 1.000000 0.000000
v 0.000000 1.000000 1.810000
v 1.000000 -1.340000 0.000000
v -3.470000 -1.340000 0.000000
v 1.000000 -1.340000 1.810000
v -3.470000 -1.340000 1.810000
v -2.470000 -1.340000 1.810000
v -2.470000 -1.340000 0.000000
v 0.000000 -1.340000 0.000000
v 0.000000 -1.340000 1.810000
v 1.000000 0.000000 0.000000
v 1.000000 0.000000 1.810000
v -2.470000 0.000000 0.000000
v 0.000000 0.000000 0.000000
v -3.470000 0.000000 0.000000
v -3.470000 0.000000 1.810000
v -2.470000 0.000000 1.810000
v 0.000000 0.000000 1.810000
v -2.970000 1.000000 0.000000
v -2.970000 1.000000 1.810000
v -2.970000 -2.340000 0.000000
v -2.970000 -2.340000 1.810000
v -2.970000 -1.340000 1.810000
v -2.970000 -1.340000 0.000000
v -2.970000 0.000000 1.810000
v -2.970000 0.000000 0.000000
v 0.500000 -2.340000 0.000000
v 0.500000 -2.340000 1.810000
v 0.500000 1.000000 0.000000
v 0.500000 1.000000 1.810000
v 0.500000 -1.340000 1.810000
v 0.500000 -1.340000 0.000000
v 0.500000 0.000000 1.810000
v 0.500000 0.000000 0.000000
v -3.470000 -1.840000 0.000000
v -3.470000 -1.840000 1.810000
v -2.470000 -1.840000 1.810000
v 0.000000 -1.840000 1.810000
v 1.000000 -1.840000 0.000000
v 1.000000 -1.840000 1.810000
v -2.470000 -1.840000 0.000000
v 0.000000 -1.840000 0.000000
v -2.970000 -1.840000 0.000000
v -2.970000 -1.840000 1.810000
v 0.500000 -1.840000 0.000000
v 0.500000 -1.840000 1.810000
v 1.000000 0.500000 0.000000
v 1.000000 0.500000 1.810000
v -2.470000 0.500000 0.000000
v 0.000000 0.500000 0.000000
v -3.470000 0.500000 0.000000
v -3.470000 0.500000 1.810000
v -2.470000 0.500000 1.810000
v 0.000000 0.500000 1.810000
v -2.970000 0.500000 1.810000
v -2.970000 0.500000 0.000000
v 0.500000 0.500000 1.810000
v 0.500000 0.500000 0.000000
v 0.500000 -1.340000 2.726000
v 0.000000 -1.340000 2.726000
v -2.470000 0.500000 2.726000
v -2.470000 0.000000 2.726000
v 0.000000 0.500000 2.726000
v 0.000000 0.000000 2.726000
v 0.500000 0.000000 2.726000
v -2.470000 -1.340000 2.726000
v -2.970000 -1.340000 2.726000
v -2.970000 0.000000 2.726000
v -2.970000 0.500000 2.726000
v 0.500000 0.500000 2.726000
v -2.470000 -1.840000 2.726000
v 0.000000 -1.840000 2.726000
v -2.970000 -1.840000 2.726000
v 0.500000 -1.840000 2.726000
v 1.500000 0.500000 0.000000
v 1.500000 1.000000 0.000000
v 1.500000 0.500000 1.810000
v 1.500000 1.000000 1.810000
v 1.500000 -2.340000 1.810000
v 1.500000 -2.340000 0.000000
v 1.500000 -1.840000 0.000000
v 1.500000 -1.840000 1.810000
v 1.000000 1.000000 1.560000
v 1.000000 -2.340000 1.560000
v -3.470000 1.000000 1.560000
v -3.470000 -2.340000 1.560000
v -2.470000 -2.340000 1.560000
v -2.470000 1.000000 1.560000
v 0.000000 1.000000 1.560000
v 0.000000 -2.340000 1.560000
v -3.470000 -1.340000 1.560000
v 1.000000 -1.340000 1.560000
v -3.470000 0.000000 1.560000
v 1.000000 0.000000 1.560000
v -2.970000 -2.340000 1.560000
v -2.970000 1.000000 1.560000
v 0.500000 1.000000 1.560000
v 0.500000 -2.340000 1.560000
v 1.000000 -1.840000 1.560000
v -3.470000 -1.840000 1.560000
v -3.470000 0.500000 1.560000
v 1.000000 0.500000 1.560000
v 2.000000 1.000000 1.560000
v 2.000000 -2.340000 1.560000
v 2.000000 -1.840000 1.560000
v 2.000000 0.500000 1.560000
v 1.000000 -2.340000 0.250000
v -3.470000 -2.340000 0.250000
v 2.000000 -2.340000 0.250000
v 1.000000 1.000000 0.250000
v -3.470000 1.000000 0.250000
v -2.470000 -2.340000 0.250000
v -2.470000 1.000000 0.250000
v 0.000000 1.000000 0.250000
v 0.000000 -2.340000 0.250000
v -3.470000 -1.340000 0.250000
v 1.000000 -1.340000 0.250000
v -3.470000 0.000000 0.250000
v 1.000000 0.000000 0.250000
v -2.970000 -2.340000 0.250000
v -2.970000 1.000000 0.250000
v 0.500000 1.000000 0.250000
v 0.500000 -2.340000 0.250000
v 1.000000 -1.840000 0.250000
v -3.470000 -1.840000 0.250000
v -3.470000 0.500000 0.250000
v 1.000000 0.500000 0.250000
v 2.000000 1.000000 0.250000
v 2.000000 -1.840000 0.250000
v 2.000000 0.500000 0.250000
v -4.470000 -1.840000 1.000000
v -4.470000 -2.340000 1.000000
v -4.470000 -1.840000 2.810000
v -4.470000 -2.340000 2.810000
v -4.470000 1.000000 2.560000
v -4.470000 1.000000 2.810000
v -4.470000 -2.340000 1.250000
v -4.470000 -1.840000 2.560000
v -4.470000 1.000000 1.000000
v -4.470000 0.500000 1.000000
v -4.470000 0.500000 2.810000
v -4.470000 0.500000 2.560000
v -4.470000 1.000000 1.250000
v -4.470000 -2.340000 2.560000
v -4.470000 -1.840000 1.250000
v -4.470000 0.500000 1.250000
v 1.000000 -2.340000 2.729000
v 1.000000 -2.340000 4.239000
v -3.500000 -2.340000 2.729000
v -3.500000 -2.340000 4.239000
v 1.000000 1.000000 2.729000
v 1.000000 1.000000 4.239000
v -3.500000 1.000000 2.729000
v -3.500000 1.000000 4.239000
vt 1.000000 1.000000
vt 1.000000 1.000000
vt 1.000000 1.000000
vt 1.000000 1.000000
vt 1.000000 1.000000
vt 1.000000 1.000000
vt 1.000000 1.000000
vt 1.000000 1.000000
vt 0.000000 0.000000
vt 0.000000 0.000000
vt 0.000000 0.000000
vt 0.000000 0.000000
vt 1.000000 1.000000
vt 1.000000 1.000000
vt 0.000000 0.000000
vt 0.000000 0.000000
vt 0.000000 0.000000
vt 0.000000 0.000000
vt 1.000000 1.000000
vt 1.000000 1.000000
vt 1.000000 1.000000
vt 0.000000 1.000000
vt 0.000000 1.000000
vt 0.000000 1.000000
vt 0.000000 1.000000
vt 1.000000 0.000000
vt 1.000000 1.000000
vt 1.000000 1.000000
vt 1.000000 0.000000
vt 1.000000 0.000000
vt 1.000000 1.000000
vt 1.000000 0.000000
vt 1.000000 1.000000
vt 1.000000 1.000000
vt 1.000000 0.000000
vt 1.000000 0.000000
vt 1.000000 0.000000
vt 1.000000 0.000000
vt 1.000000 0.000000
vt 1.000000 0.000000
vt 0.000000 0.000000
vt 0.000000 0.000000
vt 0.000000 0.000000
vt 0.000000 0.000000
vt 0.000000 0.000000
vt 0.000000 0.000000
vt 0.000000 0.000000
vt 0.000000 0.000000
vt 0.000000 0.000000
vt 0.000000 0.000000
vt 0.000000 1.000000
vt 0.000000 1.000000
vt 0.000000 1.000000
vt 0.000000 1.000000
vt 1.000000 1.000000
vt 0.000000 1.000000
vt 0.000000 1.000000
vt 1.000000 1.000000
vt 0.000000 0.000000
vt 0.000000 0.000000
vt 0.000000 0.000000
vt 0.000000 0.000000
vt 0.000000 1.000000
vt 0.000000 1.000000
vt 0.000000 1.000000
vt 0.000000 1.000000
vt 0.000000 1.000000
vt 0.000000 1.000000
vt 0.000000 1.000000
vt 1.000000 1.000000
vt 0.000000 0.000000
vt 1.000000 0.000000
vt 1.000000 0.000000
vt 1.000000 0.000000
vt 1.000000 0.000000
vt 1.000000 1.000000
vt 1.000000 1.000000
vt 1.000000 0.000000
vt 1.000000 0.000000
vt 1.000000 1.000000
vt 1.000000 1.000000
vt 1.000000 1.000000
vt 1.000000 1.000000
vt 1.000000 1.000000
vt 0.000000 1.000000
vt 0.000000 1.000000
vt 0.000000 0.000000
vt 1.000000 0.000000
vt 0.000000 0.000000
vt 1.000000 0.000000
vt 1.000000 0.000000
vt 1.000000 0.000000
vt 1.000000 0.000000
vt 1.000000 0.000000
vt 0.000000 0.000000
vt 0.000000 1.000000
vt 0.000000 1.000000
vt 0.000000 1.000000
vt 1.000000 0.000000
vt 1.000000 0.000000
vt 0.000000 0.000000
vt 0.000000 1.000000
vt 0.000000 1.000000
vt 0.000000 1.000000
vt 1.000000 1.000000
vt 1.000000 1.000000
vt 1.000000 1.000000
vt 1.000000 1.000000
vt 1.000000 0.000000
vt 0.000000 0.000000
vt 1.000000 0.000000
vt 1.000000 0.000000
vt 1.000000 1.000000
vt 0.000000 0.000000
vt 1.000000 0.000000
vt 1.000000 0.000000
vt 0.000000 1.000000
vt 0.000000 1.000000
vt 1.000000 0.000000
vt 1.000000 0.000000
vt 1.000000 0.000000
vt 1.000000 0.000000
vt 0.000000 0.000000
vt 0.000000 0.000000
vt 0.000000 0.000000
vt 0.000000 0.000000
vt 0.000000 0.000000
vt 0.000000 0.000000
vt 1.000000 0.000000
vt 1.000000 0.000000
vt 0.000000 0.000000
vt 0.000000 0.000000
vt 1.000000 0.000000
vt 1.000000 0.000000
vt 1.000000 0.000000
vt 0.000000 1.000000
vt 0.000000 1.000000
vt 0.000000 1.000000
vt 0.000000 1.000000
vt 0.000000 0.000000
vt 0.000000 0.000000
vt 1.000000 0.000000
vt 1.000000 1.000000
vt 1.000000 1.000000
vt 0.000000 1.000000
vt 0.000000 1.000000
vt 0.000000 0.000000
vt 1.000000 1.000000
vt 0.000000 1.000000
vt 1.000000 0.000000
vt 1.000000 1.000000
vt 1.000000 1.000000
vt 1.000000 1.000000
vt 0.000000 1.000000
vt 0.000000 1.000000
vt 0.000000 1.000000
vt 0.000000 1.000000
vt 1.000000 1.000000
vt 0.000000 1.000000
vt 0.000000 1.000000
vt 0.375000 0.000000
vt 0.625000 0.000000
vt 0.625000 0.250000
vt 0.375000 0.250000
vt 0.625000 0.500000
vt 0.375000 0.500000
vt 0.625000 0.750000
vt 0.375000 0.750000
vt 0.625000 1.000000
vt 0.375000 1.000000
vt 0.125000 0.500000
vt 0.125000 0.750000
vt 0.875000 0.500000
vt 0.875000 0.750000
vn 0.0000 0.0000 -1.0000
vn 0.0000 0.0000 1.0000
vn 0.0000 1.0000 0.0000
vn 0.0000 -1.0000 0.0000
vn -1.0000 0.0000 0.0000
vn 1.0000 0.0000 0.0000
vn 0.4472 0.0000 0.8944
vn 0.7071 0.0000 0.7071
vn 0.4472 0.0000 -0.8944
vn -0.7071 0.0000 -0.7071
usemtl None
s off
f 70/1/1 65/2/1 4/3/1 33/4/1
f 69/5/2 34/6/2 8/7/2 66/8/2
f 1/9/1 53/10/1 95/11/1 94/12/1
f 110/13/3 99/14/3 8/7/3 34/6/3
f 112/15/4 98/16/4 6/17/4 42/18/4
f 99/14/3 125/19/3 157/20/3 149/21/3
f 109/22/4 101/23/4 11/24/4 36/25/4
f 103/26/3 102/27/3 12/28/3 16/29/3
f 68/30/2 16/29/2 12/28/2 67/31/2
f 64/32/1 63/33/1 10/34/1 15/35/1
f 72/36/1 64/32/1 15/35/1 43/37/1
f 71/38/2 44/39/2 16/29/2 68/30/2
f 111/40/3 103/26/3 16/29/3 44/39/3
f 101/23/4 104/41/4 14/42/4 11/24/4
f 24/43/5 52/44/5 86/45/5 74/46/5
f 59/47/1 56/48/1 23/49/1 46/50/1
f 56/48/1 55/51/1 22/52/1 23/49/1
f 52/44/2 24/43/2 21/53/2 51/54/2
f 107/55/5 105/56/5 20/57/5 30/58/5
f 113/59/6 106/60/6 19/61/6 54/62/6
f 58/63/2 37/64/2 20/57/2 50/65/2
f 57/66/1 49/67/1 18/68/1 38/69/1
f 115/70/5 107/55/5 30/58/5 66/8/5
f 45/71/2 47/72/2 32/73/2 24/43/2
f 46/50/1 23/49/1 28/74/1 48/75/1
f 23/49/1 22/52/1 27/76/1 28/74/1
f 24/43/2 32/73/2 31/77/2 21/53/2
f 106/60/6 108/78/6 26/79/6 19/61/6
f 37/64/2 39/80/2 30/58/2 20/57/2
f 38/69/1 18/68/1 29/81/1 40/82/1
f 22/52/1 38/69/1 40/82/1 27/76/1
f 21/53/2 31/77/2 39/80/2 37/64/2
f 55/51/1 57/66/1 38/69/1 22/52/1
f 31/77/6 67/31/6 75/83/6 76/84/6
f 100/85/4 109/22/4 36/25/4 5/86/4
f 102/27/3 110/13/3 34/6/3 12/28/3
f 67/31/2 12/28/2 34/6/2 69/5/2
f 63/33/1 70/1/1 33/4/1 10/34/1
f 17/87/1 46/50/1 48/75/1 25/88/1
f 19/61/2 26/79/2 47/72/2 45/71/2
f 53/10/1 59/47/1 46/50/1 17/87/1
f 54/62/2 19/61/2 45/71/2 60/89/2
f 97/90/3 111/40/3 44/39/3 7/91/3
f 62/92/2 7/91/2 44/39/2 71/38/2
f 61/93/1 72/36/1 43/37/1 2/94/1
f 104/41/4 112/15/4 42/18/4 14/42/4
f 6/17/2 54/62/2 60/89/2 42/18/2
f 1/9/1 41/95/1 59/47/1 53/10/1
f 11/24/2 51/54/2 58/63/2 36/25/2
f 9/96/1 35/97/1 57/66/1 55/51/1
f 35/97/1 3/98/1 49/67/1 57/66/1
f 36/25/2 58/63/2 50/65/2 5/86/2
f 61/93/1 2/94/1 90/99/1 89/100/1
f 14/42/2 52/44/2 51/54/2 11/24/2
f 13/101/1 9/96/1 55/51/1 56/48/1
f 41/95/1 13/101/1 56/48/1 59/47/1
f 42/18/2 60/89/2 52/44/2 14/42/2
f 105/56/5 114/102/5 50/65/5 20/57/5
f 25/88/1 48/75/1 72/36/1 61/93/1
f 26/79/2 62/92/2 71/38/2 47/72/2
f 27/76/1 40/82/1 70/1/1 63/33/1
f 51/54/6 21/53/6 80/103/6 85/104/6
f 65/2/4 140/105/4 160/106/4 154/107/4
f 67/31/3 69/5/3 83/108/3 75/83/3
f 48/75/1 28/74/1 64/32/1 72/36/1
f 28/74/1 27/76/1 63/33/1 64/32/1
f 32/73/2 68/30/2 67/31/2 31/77/2
f 108/78/6 116/109/6 62/92/6 26/79/6
f 39/80/2 69/5/2 66/8/2 30/58/2
f 40/82/1 29/81/1 65/2/1 70/1/1
f 45/71/3 24/43/3 74/46/3 73/110/3
f 68/30/5 32/73/5 78/111/5 77/112/5
f 39/80/4 31/77/4 76/84/4 82/113/4
f 60/89/6 45/71/6 73/110/6 88/114/6
f 71/38/3 68/30/3 77/112/3 84/115/3
f 69/5/5 39/80/5 82/113/5 83/108/5
f 47/72/6 71/38/6 84/115/6 79/116/6
f 32/73/4 47/72/4 79/116/4 78/111/4
f 58/63/4 51/54/4 85/104/4 87/117/4
f 52/44/4 60/89/4 88/114/4 86/45/4
f 21/53/3 37/64/3 81/118/3 80/103/3
f 37/64/5 58/63/5 87/117/5 81/118/5
f 120/119/7 117/120/7 92/121/7 91/122/7
f 118/123/7 119/124/7 96/125/7 93/126/7
f 97/90/3 7/91/3 92/121/3 117/120/3
f 113/59/3 54/62/3 96/125/3 119/124/3
f 54/62/2 6/17/2 93/126/2 96/125/2
f 121/127/4 1/9/4 94/12/4 123/128/4
f 141/129/4 61/93/4 89/100/4 144/130/4
f 7/91/2 62/92/2 91/122/2 92/121/2
f 62/92/4 116/109/4 120/119/4 91/122/4
f 6/17/4 98/16/4 118/123/4 93/126/4
f 138/131/3 113/59/3 119/124/3 143/132/3
f 124/133/3 97/90/3 117/120/3 142/134/3
f 123/128/6 143/132/6 119/124/6 118/123/6
f 144/130/6 142/134/6 117/120/6 120/119/6
f 133/135/6 141/129/6 116/109/6 108/78/6
f 5/86/8 50/65/8 147/136/8 148/137/8
f 130/138/5 139/139/5 114/102/5 105/56/5
f 129/140/4 137/141/4 112/15/4 104/41/4
f 124/133/3 136/142/3 111/40/3 97/90/3
f 127/143/3 135/144/3 110/13/3 102/27/3
f 122/145/4 134/146/4 109/22/4 100/85/4
f 131/147/6 133/135/6 108/78/6 106/60/6
f 140/105/5 132/148/5 107/55/5 115/70/5
f 138/131/6 131/147/6 106/60/6 113/59/6
f 132/148/5 130/138/5 105/56/5 107/55/5
f 126/149/4 129/140/4 104/41/4 101/23/4
f 136/142/3 128/150/3 103/26/3 111/40/3
f 128/150/3 127/143/3 102/27/3 103/26/3
f 134/146/4 126/149/4 101/23/4 109/22/4
f 125/19/3 4/3/3 153/151/3 157/20/3
f 137/141/4 121/127/4 98/16/4 112/15/4
f 135/144/3 125/19/3 99/14/3 110/13/3
f 33/4/3 4/3/3 125/19/3 135/144/3
f 41/95/4 1/9/4 121/127/4 137/141/4
f 115/70/4 66/8/4 155/152/4 156/153/4
f 35/97/4 9/96/4 126/149/4 134/146/4
f 15/35/3 10/34/3 127/143/3 128/150/3
f 43/37/3 15/35/3 128/150/3 136/142/3
f 9/96/4 13/101/4 129/140/4 126/149/4
f 29/81/5 18/68/5 130/138/5 132/148/5
f 53/10/6 17/87/6 131/147/6 138/131/6
f 65/2/5 29/81/5 132/148/5 140/105/5
f 17/87/6 25/88/6 133/135/6 131/147/6
f 3/98/4 35/97/4 134/146/4 122/145/4
f 10/34/3 33/4/3 135/144/3 127/143/3
f 2/94/3 43/37/3 136/142/3 124/133/3
f 13/101/4 41/95/4 137/141/4 129/140/4
f 18/68/5 49/67/5 139/139/5 130/138/5
f 139/139/3 49/67/3 145/154/3 159/155/3
f 25/88/6 61/93/6 141/129/6 133/135/6
f 89/100/9 90/99/9 142/134/9 144/130/9
f 94/12/9 95/11/9 143/132/9 123/128/9
f 2/94/3 124/133/3 142/134/3 90/99/3
f 53/10/3 138/131/3 143/132/3 95/11/3
f 116/109/4 141/129/4 144/130/4 120/119/4
f 98/16/4 121/127/4 123/128/4 118/123/4
f 152/156/5 158/157/5 148/137/5 147/136/5
f 149/21/5 156/153/5 155/152/5 150/158/5
f 157/20/5 160/106/5 156/153/5 149/21/5
f 159/155/5 151/159/5 158/157/5 152/156/5
f 145/154/5 146/160/5 151/159/5 159/155/5
f 153/151/5 154/107/5 160/106/5 157/20/5
f 114/102/3 139/139/3 159/155/3 152/156/3
f 4/3/10 65/2/10 154/107/10 153/151/10
f 100/85/4 5/86/4 148/137/4 158/157/4
f 66/8/8 8/7/8 150/158/8 155/152/8
f 140/105/4 115/70/4 156/153/4 160/106/4
f 8/7/3 99/14/3 149/21/3 150/158/3
f 49/67/10 3/98/10 146/160/10 145/154/10
f 3/98/4 122/145/4 151/159/4 146/160/4
f 50/65/3 114/102/3 152/156/3 147/136/3
f 122/145/4 100/85/4 158/157/4 151/159/4
f 161/161/4 162/162/4 164/163/4 163/164/4
f 163/164/5 164/163/5 168/165/5 167/166/5
f 167/166/3 168/165/3 166/167/3 165/168/3
f 165/168/6 166/167/6 162/169/6 161/170/6
f 163/171/1 167/166/1 165/168/1 161/172/1
f 168/165/2 164/173/2 162/174/2 166/167/2
